<?xml version="1.0" encoding="UTF-8"?><svg id="Capa_5" xmlns="http://www.w3.org/2000/svg" viewBox="0 0 125 52"><defs><style>.cls-1,.cls-2{fill:#fff;}.cls-3{letter-spacing:-.01em;}.cls-2{font-family:Outfit-Medium, Outfit;font-size:21.35px;font-variation-settings:'wght' 500;}</style></defs><text class="cls-2" transform="translate(45.13 33.84)"><tspan x="0" y="0">MiG</tspan><tspan class="cls-3" x="39.46" y="0">y</tspan><tspan x="50.26" y="0">m</tspan></text><path class="cls-1" d="M27.04,35.17c-4.9,6.4-9.52,11.11-10.32,10.5-.78-.6,2.46-6.14,7.26-12.45-.23,.03-.46,.04-.7,.04-1.18,0-2.3-.27-3.29-.77-.95-.46-1.79-1.12-2.45-1.92-1.05-1.24-1.7-2.83-1.75-4.55-2.29,2.46-4,3.85-4.45,3.5-.79-.61,2.54-6.29,7.45-12.7,4.91-6.4,9.53-11.1,10.32-10.5,.76,.59-2.31,5.9-6.95,12.03,.36-.06,.74-.09,1.12-.09,1.12,0,2.18,.25,3.14,.7,.81,.36,1.54,.88,2.16,1.5,.12,.12,.24,.25,.35,.38,1.04,1.19,1.71,2.71,1.82,4.38,1.93-1.99,3.34-3.06,3.74-2.75,.79,.61-2.54,6.29-7.45,12.7Z"/></svg>